<svg width="261" height="75" viewBox="0 0 261 75" fill="none" xmlns="http://www.w3.org/2000/svg">
<rect width="261" height="75" rx="37.5" fill="#9E4CF2"/>
<path d="M80.425 42.215C81.425 42.215 82.175 41.96 82.675 41.45C83.175 40.94 83.425 40.275 83.425 39.455C83.425 38.615 83.175 37.95 82.675 37.46C82.175 36.97 81.425 36.725 80.425 36.725C79.435 36.725 78.685 36.97 78.175 37.46C77.675 37.95 77.425 38.615 77.425 39.455C77.425 39.855 77.49 40.225 77.62 40.565C77.75 40.905 77.94 41.2 78.19 41.45C78.44 41.69 78.75 41.88 79.12 42.02C79.5 42.15 79.935 42.215 80.425 42.215ZM84.91 50.75C84.91 50.41 84.81 50.14 84.61 49.94C84.42 49.73 84.16 49.57 83.83 49.46C83.5 49.34 83.115 49.255 82.675 49.205C82.235 49.145 81.765 49.105 81.265 49.085C80.775 49.055 80.27 49.03 79.75 49.01C79.24 48.98 78.745 48.93 78.265 48.86C77.785 49.11 77.39 49.41 77.08 49.76C76.78 50.11 76.63 50.515 76.63 50.975C76.63 51.275 76.705 51.555 76.855 51.815C77.015 52.075 77.255 52.3 77.575 52.49C77.905 52.68 78.32 52.83 78.82 52.94C79.33 53.05 79.94 53.105 80.65 53.105C82.07 53.105 83.135 52.885 83.845 52.445C84.555 52.005 84.91 51.44 84.91 50.75ZM88.15 35.255V36.455C88.15 36.855 87.91 37.1 87.43 37.19L85.9 37.445C86.16 38.025 86.29 38.67 86.29 39.38C86.29 40.13 86.14 40.81 85.84 41.42C85.55 42.03 85.145 42.55 84.625 42.98C84.105 43.41 83.485 43.74 82.765 43.97C82.045 44.2 81.265 44.315 80.425 44.315C80.105 44.315 79.79 44.3 79.48 44.27C79.18 44.23 78.885 44.18 78.595 44.12C78.305 44.29 78.09 44.47 77.95 44.66C77.81 44.85 77.74 45.045 77.74 45.245C77.74 45.575 77.885 45.82 78.175 45.98C78.465 46.14 78.845 46.255 79.315 46.325C79.795 46.395 80.34 46.44 80.95 46.46C81.56 46.48 82.18 46.515 82.81 46.565C83.44 46.615 84.06 46.7 84.67 46.82C85.28 46.93 85.82 47.12 86.29 47.39C86.77 47.65 87.155 48.005 87.445 48.455C87.735 48.905 87.88 49.49 87.88 50.21C87.88 50.87 87.715 51.515 87.385 52.145C87.055 52.775 86.575 53.335 85.945 53.825C85.325 54.315 84.565 54.705 83.665 54.995C82.765 55.295 81.74 55.445 80.59 55.445C79.45 55.445 78.455 55.335 77.605 55.115C76.765 54.895 76.06 54.595 75.49 54.215C74.93 53.845 74.51 53.415 74.23 52.925C73.96 52.435 73.825 51.925 73.825 51.395C73.825 50.675 74.05 50.06 74.5 49.55C74.96 49.04 75.58 48.64 76.36 48.35C75.94 48.15 75.6 47.875 75.34 47.525C75.09 47.175 74.965 46.715 74.965 46.145C74.965 45.695 75.13 45.225 75.46 44.735C75.79 44.245 76.285 43.83 76.945 43.49C76.185 43.07 75.585 42.515 75.145 41.825C74.705 41.125 74.485 40.31 74.485 39.38C74.485 38.62 74.63 37.935 74.92 37.325C75.22 36.715 75.635 36.195 76.165 35.765C76.695 35.335 77.32 35.005 78.04 34.775C78.77 34.545 79.565 34.43 80.425 34.43C81.745 34.43 82.895 34.705 83.875 35.255H88.15ZM97.0488 34.46C98.1788 34.46 99.1988 34.645 100.109 35.015C101.029 35.385 101.809 35.91 102.449 36.59C103.099 37.27 103.599 38.095 103.949 39.065C104.299 40.035 104.474 41.125 104.474 42.335C104.474 43.545 104.299 44.635 103.949 45.605C103.599 46.575 103.099 47.405 102.449 48.095C101.809 48.775 101.029 49.3 100.109 49.67C99.1988 50.04 98.1788 50.225 97.0488 50.225C95.9088 50.225 94.8788 50.04 93.9588 49.67C93.0488 49.3 92.2688 48.775 91.6188 48.095C90.9688 47.405 90.4688 46.575 90.1188 45.605C89.7688 44.635 89.5938 43.545 89.5938 42.335C89.5938 41.125 89.7688 40.035 90.1188 39.065C90.4688 38.095 90.9688 37.27 91.6188 36.59C92.2688 35.91 93.0488 35.385 93.9588 35.015C94.8788 34.645 95.9088 34.46 97.0488 34.46ZM97.0488 47.705C98.4288 47.705 99.4538 47.245 100.124 46.325C100.804 45.395 101.144 44.07 101.144 42.35C101.144 40.63 100.804 39.305 100.124 38.375C99.4538 37.435 98.4288 36.965 97.0488 36.965C95.6488 36.965 94.6088 37.435 93.9288 38.375C93.2488 39.305 92.9088 40.63 92.9088 42.35C92.9088 44.07 93.2488 45.395 93.9288 46.325C94.6088 47.245 95.6488 47.705 97.0488 47.705ZM118.268 36.515C118.898 35.895 119.588 35.4 120.338 35.03C121.088 34.65 121.963 34.46 122.963 34.46C123.803 34.46 124.538 34.6 125.168 34.88C125.808 35.16 126.343 35.555 126.773 36.065C127.213 36.575 127.543 37.19 127.763 37.91C127.983 38.62 128.093 39.405 128.093 40.265V50H124.883V40.265C124.883 39.235 124.643 38.435 124.163 37.865C123.693 37.295 122.973 37.01 122.003 37.01C121.283 37.01 120.613 37.175 119.993 37.505C119.383 37.835 118.808 38.285 118.268 38.855V50H115.043V27.8H118.268V36.515ZM138.475 34.46C139.605 34.46 140.625 34.645 141.535 35.015C142.455 35.385 143.235 35.91 143.875 36.59C144.525 37.27 145.025 38.095 145.375 39.065C145.725 40.035 145.9 41.125 145.9 42.335C145.9 43.545 145.725 44.635 145.375 45.605C145.025 46.575 144.525 47.405 143.875 48.095C143.235 48.775 142.455 49.3 141.535 49.67C140.625 50.04 139.605 50.225 138.475 50.225C137.335 50.225 136.305 50.04 135.385 49.67C134.475 49.3 133.695 48.775 133.045 48.095C132.395 47.405 131.895 46.575 131.545 45.605C131.195 44.635 131.02 43.545 131.02 42.335C131.02 41.125 131.195 40.035 131.545 39.065C131.895 38.095 132.395 37.27 133.045 36.59C133.695 35.91 134.475 35.385 135.385 35.015C136.305 34.645 137.335 34.46 138.475 34.46ZM138.475 47.705C139.855 47.705 140.88 47.245 141.55 46.325C142.23 45.395 142.57 44.07 142.57 42.35C142.57 40.63 142.23 39.305 141.55 38.375C140.88 37.435 139.855 36.965 138.475 36.965C137.075 36.965 136.035 37.435 135.355 38.375C134.675 39.305 134.335 40.63 134.335 42.35C134.335 44.07 134.675 45.395 135.355 46.325C136.035 47.245 137.075 47.705 138.475 47.705ZM148.998 50V34.7H150.948C151.388 34.7 151.668 34.905 151.788 35.315L151.998 36.65C152.278 36.33 152.568 36.04 152.868 35.78C153.168 35.51 153.488 35.28 153.828 35.09C154.178 34.89 154.548 34.735 154.938 34.625C155.338 34.515 155.768 34.46 156.228 34.46C156.718 34.46 157.168 34.53 157.578 34.67C157.988 34.81 158.348 35.01 158.658 35.27C158.978 35.53 159.253 35.845 159.483 36.215C159.713 36.585 159.903 37 160.053 37.46C160.283 36.93 160.573 36.475 160.923 36.095C161.273 35.715 161.663 35.405 162.093 35.165C162.523 34.925 162.978 34.75 163.458 34.64C163.948 34.52 164.443 34.46 164.943 34.46C165.763 34.46 166.493 34.59 167.133 34.85C167.783 35.11 168.328 35.49 168.768 35.99C169.218 36.48 169.558 37.085 169.788 37.805C170.018 38.525 170.133 39.345 170.133 40.265V50H166.908V40.265C166.908 39.185 166.673 38.375 166.203 37.835C165.743 37.285 165.058 37.01 164.148 37.01C163.738 37.01 163.353 37.08 162.993 37.22C162.633 37.36 162.318 37.565 162.048 37.835C161.778 38.105 161.563 38.445 161.403 38.855C161.253 39.255 161.178 39.725 161.178 40.265V50H157.953V40.265C157.953 39.145 157.728 38.325 157.278 37.805C156.828 37.275 156.168 37.01 155.298 37.01C154.698 37.01 154.143 37.165 153.633 37.475C153.123 37.775 152.653 38.19 152.223 38.72V50H148.998ZM183.936 40.625C183.936 40.085 183.856 39.585 183.696 39.125C183.546 38.655 183.321 38.25 183.021 37.91C182.721 37.56 182.346 37.29 181.896 37.1C181.456 36.9 180.946 36.8 180.366 36.8C179.196 36.8 178.276 37.135 177.606 37.805C176.936 38.475 176.511 39.415 176.331 40.625H183.936ZM176.241 42.605C176.281 43.475 176.416 44.23 176.646 44.87C176.876 45.5 177.181 46.025 177.561 46.445C177.951 46.865 178.411 47.18 178.941 47.39C179.481 47.59 180.081 47.69 180.741 47.69C181.371 47.69 181.916 47.62 182.376 47.48C182.836 47.33 183.236 47.17 183.576 47C183.916 46.82 184.206 46.66 184.446 46.52C184.686 46.37 184.906 46.295 185.106 46.295C185.366 46.295 185.566 46.395 185.706 46.595L186.621 47.78C186.241 48.23 185.811 48.61 185.331 48.92C184.851 49.23 184.341 49.485 183.801 49.685C183.261 49.875 182.706 50.01 182.136 50.09C181.566 50.18 181.011 50.225 180.471 50.225C179.411 50.225 178.426 50.05 177.516 49.7C176.616 49.34 175.831 48.815 175.161 48.125C174.501 47.435 173.981 46.58 173.601 45.56C173.231 44.54 173.046 43.365 173.046 42.035C173.046 40.975 173.211 39.985 173.541 39.065C173.881 38.145 174.361 37.345 174.981 36.665C175.611 35.985 176.371 35.45 177.261 35.06C178.161 34.66 179.176 34.46 180.306 34.46C181.246 34.46 182.116 34.615 182.916 34.925C183.716 35.225 184.406 35.67 184.986 36.26C185.566 36.85 186.016 37.575 186.336 38.435C186.666 39.285 186.831 40.255 186.831 41.345C186.831 41.845 186.776 42.18 186.666 42.35C186.556 42.52 186.356 42.605 186.066 42.605H176.241Z" fill="white"/>
</svg>
