<svg width="139" height="24" viewBox="0 0 139 24" fill="none" xmlns="http://www.w3.org/2000/svg">
<path d="M4.752 2.832C3.984 2.832 3.4 2.96 3 3.216C2.616 3.456 2.336 3.792 2.16 4.224C2 4.656 1.864 5.168 1.752 5.76C1.576 5.76 1.376 5.744 1.152 5.712C0.928 5.68 0.744 5.624 0.6 5.544C0.728 4.872 0.824 4.2 0.888 3.528C0.952 2.856 0.984 2.248 0.984 1.704C1.432 1.72 1.976 1.736 2.616 1.752C3.272 1.768 3.976 1.776 4.728 1.776C5.496 1.776 6.288 1.776 7.104 1.776C7.92 1.776 8.712 1.776 9.48 1.776C10.264 1.776 10.984 1.768 11.64 1.752C12.296 1.736 12.84 1.72 13.272 1.704C13.256 2.28 13.256 2.872 13.272 3.48C13.304 4.088 13.352 4.776 13.416 5.544C13.256 5.624 13.072 5.688 12.864 5.736C12.672 5.768 12.456 5.776 12.216 5.76C12.2 4.816 11.976 4.096 11.544 3.6C11.128 3.088 10.448 2.832 9.504 2.832H4.752ZM5.976 2.424H8.232V14.952C8.232 15.48 8.28 15.896 8.376 16.2C8.472 16.488 8.656 16.696 8.928 16.824C9.2 16.936 9.592 17.008 10.104 17.04C10.152 17.168 10.184 17.32 10.2 17.496C10.216 17.656 10.224 17.848 10.224 18.072C9.712 18.04 9.184 18.016 8.64 18C8.112 18 7.592 18 7.08 18C6.744 18 6.384 18 6 18C5.632 18.016 5.272 18.024 4.92 18.024C4.568 18.04 4.24 18.056 3.936 18.072C3.936 17.848 3.944 17.656 3.96 17.496C3.976 17.32 4.008 17.168 4.056 17.04C4.568 17.008 4.96 16.936 5.232 16.824C5.52 16.696 5.712 16.488 5.808 16.2C5.92 15.896 5.976 15.48 5.976 14.952V2.424ZM17.9021 14.472C17.9021 15.16 17.9741 15.688 18.1181 16.056C18.2621 16.408 18.4941 16.656 18.8141 16.8C19.1341 16.928 19.5421 17.008 20.0381 17.04C20.0861 17.168 20.1181 17.32 20.1341 17.496C20.1501 17.656 20.1581 17.848 20.1581 18.072C19.9181 18.056 19.6301 18.04 19.2941 18.024C18.9741 18.024 18.6301 18.016 18.2621 18C17.8941 18 17.5181 18 17.1341 18C16.5741 18 15.9821 18 15.3581 18C14.7501 18.016 14.2861 18.04 13.9661 18.072C13.9661 17.848 13.9741 17.656 13.9901 17.496C14.0061 17.32 14.0381 17.168 14.0861 17.04C14.5181 17.008 14.8541 16.936 15.0941 16.824C15.3341 16.696 15.5021 16.488 15.5981 16.2C15.6941 15.896 15.7421 15.48 15.7421 14.952V12.552H17.9021V14.472ZM17.9021 10.968V12.864H15.7421V10.2L17.9021 7.848C17.9021 8.392 17.8541 8.888 17.7581 9.336C17.6621 9.768 17.5741 10.2 17.4941 10.632L17.9021 10.968ZM17.3741 10.776C17.5501 10.328 17.6861 9.96 17.7821 9.672C17.8781 9.384 17.9821 9.144 18.0941 8.952C18.4461 8.392 18.8621 7.928 19.3421 7.56C19.8221 7.192 20.3741 7.008 20.9981 7.008C21.6061 7.008 22.1581 7.2 22.6541 7.584C22.6221 7.84 22.5901 8.136 22.5581 8.472C22.5261 8.808 22.5021 9.144 22.4861 9.48C22.4861 9.816 22.4861 10.128 22.4861 10.416C22.3421 10.464 22.1421 10.512 21.8861 10.56C21.6461 10.608 21.3901 10.632 21.1181 10.632C21.0861 9.864 20.9581 9.36 20.7341 9.12C20.5261 8.88 20.2621 8.76 19.9421 8.76C19.6701 8.76 19.3741 8.92 19.0541 9.24C18.7341 9.544 18.4621 9.952 18.2381 10.464C18.0141 10.976 17.9021 11.544 17.9021 12.168L17.3741 10.776ZM15.7421 12.864V10.2C15.7421 9.816 15.7021 9.504 15.6221 9.264C15.5421 9.024 15.3741 8.84 15.1181 8.712C14.8621 8.584 14.4701 8.512 13.9421 8.496C13.9421 8.32 13.9581 8.16 13.9901 8.016C14.0221 7.872 14.0781 7.736 14.1581 7.608C14.6541 7.576 15.2221 7.48 15.8621 7.32C16.5021 7.16 17.0061 6.984 17.3741 6.792C17.5181 6.84 17.6381 6.944 17.7341 7.104C17.8461 7.248 17.9021 7.496 17.9021 7.848L15.7421 12.864ZM31.3648 18.216C31.1888 18.136 31.0448 17.992 30.9328 17.784C30.8368 17.576 30.7888 17.248 30.7888 16.8C30.7888 16.656 30.7968 16.488 30.8128 16.296C30.8288 16.088 30.8608 15.904 30.9088 15.744H30.9568C30.9088 16 30.7968 16.28 30.6208 16.584C30.4608 16.872 30.2448 17.128 29.9728 17.352C29.7008 17.592 29.3568 17.792 28.9408 17.952C28.5248 18.096 28.0208 18.168 27.4288 18.168C26.4208 18.168 25.6528 17.944 25.1248 17.496C24.5968 17.032 24.3328 16.408 24.3328 15.624C24.3328 15 24.4768 14.472 24.7648 14.04C25.0688 13.592 25.4528 13.224 25.9168 12.936C26.3968 12.632 26.9088 12.392 27.4528 12.216C28.0128 12.04 28.5568 11.904 29.0848 11.808C29.6128 11.712 30.0768 11.632 30.4768 11.568C30.4768 10.912 30.4608 10.4 30.4288 10.032C30.4128 9.664 30.3648 9.376 30.2848 9.168C30.2208 8.944 30.1168 8.752 29.9728 8.592C29.7808 8.352 29.5568 8.176 29.3008 8.064C29.0608 7.936 28.7888 7.872 28.4848 7.872C27.9568 7.872 27.5408 8.04 27.2368 8.376C26.9328 8.696 26.7168 9.072 26.5888 9.504C26.4608 9.936 26.3888 10.32 26.3728 10.656C26.1968 10.656 25.9728 10.648 25.7008 10.632C25.4448 10.6 25.2528 10.552 25.1248 10.488C25.1568 10.088 25.1648 9.64 25.1488 9.144C25.1328 8.648 25.0848 8.224 25.0048 7.872C25.6608 7.536 26.3488 7.272 27.0688 7.08C27.8048 6.888 28.4768 6.792 29.0848 6.792C29.6768 6.792 30.1808 6.88 30.5968 7.056C31.0288 7.216 31.3728 7.432 31.6288 7.704C32.0448 8.104 32.3168 8.632 32.4448 9.288C32.5728 9.928 32.6368 10.784 32.6368 11.856V14.496C32.6368 14.944 32.6688 15.304 32.7328 15.576C32.8128 15.832 32.9568 16.024 33.1648 16.152C33.3728 16.264 33.6928 16.336 34.1248 16.368C34.1248 16.528 34.1168 16.712 34.1008 16.92C34.0848 17.112 34.0448 17.296 33.9808 17.472C33.5808 17.488 33.1328 17.568 32.6368 17.712C32.1568 17.84 31.7328 18.008 31.3648 18.216ZM28.1008 16.848C28.4528 16.848 28.8128 16.736 29.1808 16.512C29.5488 16.272 29.8528 15.904 30.0928 15.408C30.3488 14.912 30.4768 14.264 30.4768 13.464V12.552C30.0768 12.6 29.6528 12.672 29.2048 12.768C28.7568 12.848 28.3408 12.976 27.9568 13.152C27.5728 13.328 27.2608 13.576 27.0208 13.896C26.7808 14.2 26.6608 14.616 26.6608 15.144C26.6608 15.736 26.8048 16.168 27.0928 16.44C27.3808 16.712 27.7168 16.848 28.1008 16.848ZM40.1914 18.216C40.0634 17.896 39.8634 17.432 39.5914 16.824C39.3354 16.2 39.0394 15.512 38.7034 14.76C38.3834 14.008 38.0554 13.272 37.7194 12.552C37.3994 11.816 37.1114 11.176 36.8554 10.632C36.6154 10.072 36.4474 9.688 36.3514 9.48C36.1434 9.048 35.9674 8.736 35.8234 8.544C35.6794 8.336 35.5354 8.192 35.3914 8.112C35.2634 8.032 35.0874 7.984 34.8634 7.968C34.7994 7.76 34.7594 7.592 34.7434 7.464C34.7274 7.336 34.7194 7.16 34.7194 6.936C35.0554 6.952 35.4314 6.968 35.8474 6.984C36.2794 7 36.7434 7.008 37.2394 7.008C37.5754 7.008 37.9194 7.008 38.2714 7.008C38.6394 6.992 38.9834 6.984 39.3034 6.984C39.6394 6.968 39.9354 6.952 40.1914 6.936C40.1914 7.112 40.1754 7.288 40.1434 7.464C40.1114 7.624 40.0714 7.776 40.0234 7.92C39.2234 7.984 38.7514 8.112 38.6074 8.304C38.4634 8.496 38.5434 8.92 38.8474 9.576C38.9594 9.816 39.1194 10.184 39.3274 10.68C39.5354 11.16 39.7674 11.712 40.0234 12.336C40.2794 12.96 40.5354 13.592 40.7914 14.232C41.0474 14.856 41.2714 15.424 41.4634 15.936H41.1994C41.6154 14.896 41.9914 13.96 42.3274 13.128C42.6634 12.296 42.9754 11.52 43.2634 10.8C43.6794 9.76 43.7994 9.04 43.6234 8.64C43.4634 8.224 43.0794 7.992 42.4714 7.944C42.3914 7.784 42.3274 7.616 42.2794 7.44C42.2314 7.264 42.2074 7.096 42.2074 6.936C42.5274 6.952 42.8874 6.968 43.2874 6.984C43.6874 7 44.0714 7.008 44.4394 7.008C44.8074 7.008 45.1994 7 45.6154 6.984C46.0314 6.968 46.3834 6.952 46.6714 6.936C46.6714 7.144 46.6554 7.336 46.6234 7.512C46.5914 7.672 46.5354 7.824 46.4554 7.968C46.1994 8.016 45.9754 8.128 45.7834 8.304C45.5914 8.48 45.3994 8.744 45.2074 9.096C45.0314 9.448 44.8074 9.944 44.5354 10.584L41.2954 18C41.1514 18.064 40.9754 18.112 40.7674 18.144C40.5754 18.192 40.3834 18.216 40.1914 18.216ZM52.8527 18.216C51.7167 18.216 50.7727 17.96 50.0207 17.448C49.2687 16.936 48.7007 16.248 48.3167 15.384C47.9487 14.504 47.7647 13.544 47.7647 12.504C47.7647 11.48 47.9647 10.536 48.3647 9.672C48.7647 8.808 49.3327 8.112 50.0687 7.584C50.8207 7.056 51.7087 6.792 52.7327 6.792C53.7727 6.792 54.6047 7.016 55.2287 7.464C55.8687 7.912 56.3407 8.512 56.6447 9.264C56.9647 10.016 57.1567 10.848 57.2207 11.76C57.1567 12.08 57.0367 12.352 56.8607 12.576C56.5887 12.576 56.1807 12.576 55.6367 12.576C55.0927 12.576 54.4767 12.584 53.7887 12.6C53.1007 12.6 52.3967 12.616 51.6767 12.648C50.9567 12.664 50.2767 12.688 49.6367 12.72V11.496H54.7247C54.7247 10.44 54.5327 9.584 54.1487 8.928C53.7647 8.272 53.2207 7.944 52.5167 7.944C52.1327 7.944 51.7567 8.064 51.3887 8.304C51.0207 8.528 50.7167 8.936 50.4767 9.528C50.2367 10.104 50.1167 10.928 50.1167 12C50.1167 12.784 50.2127 13.552 50.4047 14.304C50.6127 15.04 50.9647 15.656 51.4607 16.152C51.9727 16.632 52.6927 16.872 53.6207 16.872C54.1487 16.872 54.6687 16.752 55.1807 16.512C55.6927 16.272 56.1487 15.928 56.5487 15.48C56.6767 15.544 56.7967 15.656 56.9087 15.816C57.0367 15.96 57.1087 16.096 57.1247 16.224C56.5807 16.944 55.9487 17.456 55.2287 17.76C54.5247 18.064 53.7327 18.216 52.8527 18.216ZM59.0359 18.072C59.0359 17.912 59.0439 17.744 59.0599 17.568C59.0759 17.376 59.1079 17.2 59.1559 17.04C59.7959 17.04 60.2279 16.896 60.4519 16.608C60.6919 16.304 60.8119 15.752 60.8119 14.952V4.2C60.8119 3.816 60.7719 3.504 60.6919 3.264C60.6279 3.008 60.4679 2.816 60.2119 2.688C59.9559 2.56 59.5559 2.496 59.0119 2.496C59.0119 2.32 59.0279 2.16 59.0599 2.016C59.0919 1.872 59.1479 1.736 59.2279 1.608C59.4679 1.608 59.8039 1.568 60.2359 1.488C60.6839 1.408 61.1159 1.304 61.5319 1.176C61.9479 1.048 62.2519 0.919999 62.4439 0.792C62.5879 0.839999 62.7079 0.935999 62.8039 1.08C62.9159 1.224 62.9719 1.448 62.9719 1.752V14.952C62.9719 15.752 63.0759 16.304 63.2839 16.608C63.5079 16.896 63.8759 17.04 64.3879 17.04C64.4359 17.2 64.4679 17.384 64.4839 17.592C64.4999 17.8 64.5079 17.96 64.5079 18.072C64.2359 18.056 63.9479 18.04 63.6439 18.024C63.3399 18.024 63.0279 18.016 62.7079 18C62.4039 18 62.0999 18 61.7959 18C61.4919 18 61.1719 18 60.8359 18C60.5159 18.016 60.2039 18.024 59.8999 18.024C59.5959 18.04 59.3079 18.056 59.0359 18.072ZM71.5164 1.704C71.8364 1.72 72.2204 1.736 72.6684 1.752C73.1324 1.768 73.5804 1.776 74.0124 1.776C74.3964 1.776 74.7804 1.776 75.1644 1.776C75.5484 1.76 75.9324 1.752 76.3164 1.752C76.7004 1.736 77.0764 1.728 77.4444 1.728C78.3724 1.728 79.2204 1.824 79.9884 2.016C80.7564 2.208 81.3724 2.56 81.8364 3.072C82.3164 3.568 82.5564 4.288 82.5564 5.232C82.5564 6.256 82.2444 7.136 81.6204 7.872C80.9964 8.592 80.1484 9.032 79.0764 9.192C79.9244 9.24 80.7004 9.4 81.4044 9.672C82.1244 9.928 82.7004 10.344 83.1324 10.92C83.5644 11.496 83.7804 12.28 83.7804 13.272C83.7804 14.136 83.5804 14.928 83.1804 15.648C82.7964 16.368 82.1804 16.944 81.3324 17.376C80.4844 17.792 79.3804 18 78.0204 18C77.5724 18 77.0364 18 76.4124 18C75.8044 18 75.1804 18 74.5404 18C73.9004 18.016 73.3084 18.024 72.7644 18.024C72.2204 18.04 71.7964 18.056 71.4924 18.072C71.4924 17.848 71.5004 17.656 71.5164 17.496C71.5324 17.32 71.5644 17.168 71.6124 17.04C72.0444 17.008 72.3804 16.928 72.6204 16.8C72.8604 16.672 73.0284 16.448 73.1244 16.128C73.2364 15.792 73.2924 15.312 73.2924 14.688V4.824C73.2924 4.28 73.2444 3.864 73.1484 3.576C73.0524 3.288 72.8844 3.08 72.6444 2.952C72.4044 2.824 72.0684 2.752 71.6364 2.736C71.5884 2.608 71.5564 2.456 71.5404 2.28C71.5244 2.088 71.5164 1.896 71.5164 1.704ZM75.5484 2.616V14.688C75.5484 15.344 75.6044 15.84 75.7164 16.176C75.8444 16.496 76.0684 16.712 76.3884 16.824C76.7244 16.92 77.1884 16.968 77.7804 16.968C78.9644 16.968 79.8284 16.672 80.3724 16.08C80.9324 15.472 81.2124 14.648 81.2124 13.608C81.2124 12.856 81.0604 12.248 80.7564 11.784C80.4524 11.304 80.0444 10.944 79.5324 10.704C79.0364 10.448 78.4844 10.272 77.8764 10.176C77.2844 10.08 76.6924 10.032 76.1004 10.032H75.2604V9H76.2924C77.3324 9 78.1244 8.856 78.6684 8.568C79.2124 8.28 79.5884 7.904 79.7964 7.44C80.0044 6.96 80.1084 6.464 80.1084 5.952C80.1084 5.12 79.9164 4.48 79.5324 4.032C79.1644 3.568 78.7004 3.248 78.1404 3.072C77.5964 2.88 77.0604 2.784 76.5324 2.784C76.3244 2.784 76.1164 2.8 75.9084 2.832C75.7164 2.848 75.4844 2.896 75.2124 2.976L75.5484 2.616ZM90.5016 18.096C89.4296 18.096 88.5896 17.784 87.9816 17.16C87.3736 16.536 87.0696 15.424 87.0696 13.824V10.2C87.0696 9.64 86.9896 9.224 86.8296 8.952C86.6696 8.664 86.2216 8.512 85.4856 8.496C85.4856 8.32 85.4936 8.168 85.5096 8.04C85.5416 7.896 85.5896 7.752 85.6536 7.608C86.1496 7.576 86.6856 7.48 87.2616 7.32C87.8536 7.16 88.3336 6.984 88.7016 6.792C88.8456 6.84 88.9656 6.944 89.0616 7.104C89.1736 7.248 89.2296 7.496 89.2296 7.848V13.296C89.2296 14.368 89.3736 15.192 89.6616 15.768C89.9656 16.344 90.4856 16.632 91.2216 16.632C92.0216 16.632 92.6856 16.296 93.2136 15.624C93.7576 14.952 94.0296 13.92 94.0296 12.528V10.08C94.0296 9.52 93.9256 9.104 93.7176 8.832C93.5256 8.544 93.0296 8.392 92.2296 8.376C92.2296 8.2 92.2376 8.048 92.2536 7.92C92.2696 7.776 92.3176 7.632 92.3976 7.488C93.0216 7.456 93.6296 7.376 94.2216 7.248C94.8296 7.104 95.3096 6.952 95.6616 6.792C95.8056 6.84 95.9256 6.944 96.0216 7.104C96.1336 7.248 96.1896 7.496 96.1896 7.848V14.808L94.3176 15.696C94.2376 15.904 94.1256 16.112 93.9816 16.32C93.8376 16.512 93.6776 16.696 93.5016 16.872C93.0856 17.288 92.6456 17.6 92.1816 17.808C91.7176 18 91.1576 18.096 90.5016 18.096ZM94.7976 18.216C94.6376 18.136 94.4936 18.024 94.3656 17.88C94.2536 17.72 94.1976 17.368 94.1976 16.824C94.1976 16.648 94.2056 16.4 94.2216 16.08C94.2536 15.76 94.3256 15.312 94.4376 14.736H96.1896C96.1896 15.104 96.2216 15.416 96.2856 15.672C96.3496 15.912 96.4856 16.088 96.6936 16.2C96.9176 16.312 97.2456 16.368 97.6776 16.368C97.6776 16.528 97.6696 16.712 97.6536 16.92C97.6376 17.112 97.5976 17.296 97.5336 17.472C97.1336 17.488 96.6696 17.568 96.1416 17.712C95.6136 17.84 95.1656 18.008 94.7976 18.216ZM105.584 6.792C106.048 6.792 106.448 6.832 106.784 6.912C107.136 6.992 107.512 7.096 107.912 7.224V9.072C107.592 8.736 107.24 8.456 106.856 8.232C106.488 8.008 106.024 7.896 105.464 7.896C105.128 7.896 104.76 7.968 104.36 8.112C103.976 8.24 103.6 8.472 103.232 8.808C102.864 9.144 102.56 9.616 102.32 10.224C102.096 10.832 101.984 11.616 101.984 12.576C101.984 13.6 102.136 14.416 102.44 15.024C102.744 15.616 103.104 16.048 103.52 16.32C103.936 16.576 104.32 16.704 104.672 16.704C105.152 16.704 105.608 16.56 106.04 16.272C106.488 15.968 106.856 15.48 107.144 14.808C107.432 14.136 107.576 13.24 107.576 12.12L108.272 14.664C108.064 15.176 107.88 15.568 107.72 15.84C107.576 16.112 107.464 16.312 107.384 16.44C107.24 16.68 107.008 16.936 106.688 17.208C106.384 17.48 106.008 17.72 105.56 17.928C105.128 18.12 104.64 18.216 104.096 18.216C103.168 18.216 102.368 18.032 101.696 17.664C101.024 17.28 100.504 16.696 100.136 15.912C99.7844 15.128 99.6084 14.12 99.6084 12.888C99.6084 11.768 99.8564 10.752 100.352 9.84C100.848 8.912 101.544 8.176 102.44 7.632C103.336 7.072 104.384 6.792 105.584 6.792ZM109.736 14.736C109.736 15.104 109.768 15.416 109.832 15.672C109.896 15.912 110.032 16.088 110.24 16.2C110.464 16.312 110.792 16.368 111.224 16.368C111.224 16.528 111.216 16.712 111.2 16.92C111.184 17.112 111.144 17.296 111.08 17.472C110.68 17.488 110.216 17.568 109.688 17.712C109.16 17.84 108.712 18.008 108.344 18.216C108.184 18.136 108.04 18.024 107.912 17.88C107.8 17.72 107.744 17.368 107.744 16.824C107.744 16.504 107.768 16.224 107.816 15.984C107.88 15.728 107.968 15.312 108.08 14.736H109.736ZM109.736 4.2V14.952H107.576V4.2H109.736ZM109.208 0.792C109.352 0.839999 109.472 0.935999 109.568 1.08C109.68 1.224 109.736 1.448 109.736 1.752V5.088H107.576V4.2C107.576 3.816 107.536 3.504 107.456 3.264C107.392 3.008 107.232 2.816 106.976 2.688C106.72 2.56 106.32 2.496 105.776 2.496C105.776 2.32 105.792 2.16 105.824 2.016C105.856 1.872 105.912 1.736 105.992 1.608C106.232 1.608 106.568 1.568 107 1.488C107.432 1.408 107.856 1.304 108.272 1.176C108.704 1.048 109.016 0.919999 109.208 0.792ZM119.131 6.792C119.595 6.792 119.995 6.832 120.331 6.912C120.683 6.992 121.059 7.096 121.459 7.224V9.072C121.139 8.736 120.787 8.456 120.403 8.232C120.035 8.008 119.571 7.896 119.011 7.896C118.675 7.896 118.307 7.968 117.907 8.112C117.523 8.24 117.147 8.472 116.779 8.808C116.411 9.144 116.107 9.616 115.867 10.224C115.643 10.832 115.531 11.616 115.531 12.576C115.531 13.6 115.683 14.416 115.987 15.024C116.291 15.616 116.651 16.048 117.067 16.32C117.483 16.576 117.867 16.704 118.219 16.704C118.699 16.704 119.155 16.56 119.587 16.272C120.035 15.968 120.403 15.48 120.691 14.808C120.979 14.136 121.123 13.24 121.123 12.12L121.819 14.664C121.611 15.176 121.427 15.568 121.267 15.84C121.123 16.112 121.011 16.312 120.931 16.44C120.787 16.68 120.555 16.936 120.235 17.208C119.931 17.48 119.555 17.72 119.107 17.928C118.675 18.12 118.187 18.216 117.643 18.216C116.715 18.216 115.915 18.032 115.243 17.664C114.571 17.28 114.051 16.696 113.683 15.912C113.331 15.128 113.155 14.12 113.155 12.888C113.155 11.768 113.403 10.752 113.899 9.84C114.395 8.912 115.091 8.176 115.987 7.632C116.883 7.072 117.931 6.792 119.131 6.792ZM123.283 14.736C123.283 15.104 123.315 15.416 123.379 15.672C123.443 15.912 123.579 16.088 123.787 16.2C124.011 16.312 124.339 16.368 124.771 16.368C124.771 16.528 124.763 16.712 124.747 16.92C124.731 17.112 124.691 17.296 124.627 17.472C124.227 17.488 123.763 17.568 123.235 17.712C122.707 17.84 122.259 18.008 121.891 18.216C121.731 18.136 121.587 18.024 121.459 17.88C121.347 17.72 121.291 17.368 121.291 16.824C121.291 16.504 121.315 16.224 121.363 15.984C121.427 15.728 121.515 15.312 121.627 14.736H123.283ZM123.283 4.2V14.952H121.123V4.2H123.283ZM122.755 0.792C122.899 0.839999 123.019 0.935999 123.115 1.08C123.227 1.224 123.283 1.448 123.283 1.752V5.088H121.123V4.2C121.123 3.816 121.083 3.504 121.003 3.264C120.939 3.008 120.779 2.816 120.523 2.688C120.267 2.56 119.867 2.496 119.323 2.496C119.323 2.32 119.339 2.16 119.371 2.016C119.403 1.872 119.459 1.736 119.539 1.608C119.779 1.608 120.115 1.568 120.547 1.488C120.979 1.408 121.403 1.304 121.819 1.176C122.251 1.048 122.563 0.919999 122.755 0.792ZM134.838 10.848C135.254 9.824 135.35 9.128 135.126 8.76C134.918 8.376 134.462 8.12 133.758 7.992C133.694 7.816 133.646 7.648 133.614 7.488C133.598 7.312 133.59 7.136 133.59 6.96C133.958 6.976 134.334 6.992 134.718 7.008C135.102 7.008 135.518 7.008 135.966 7.008C136.414 7.008 136.838 7.008 137.238 7.008C137.638 6.992 138.014 6.976 138.366 6.96C138.366 7.12 138.358 7.288 138.342 7.464C138.342 7.64 138.302 7.816 138.222 7.992C137.934 8.056 137.686 8.168 137.478 8.328C137.286 8.488 137.102 8.736 136.926 9.072C136.75 9.408 136.534 9.88 136.278 10.488L132.75 18.888C132.302 19.976 131.894 20.856 131.526 21.528C131.174 22.2 130.838 22.712 130.518 23.064C130.214 23.416 129.902 23.656 129.582 23.784C129.278 23.912 128.942 23.976 128.574 23.976C128.094 23.976 127.71 23.912 127.422 23.784C127.15 23.656 126.934 23.536 126.774 23.424C126.71 23.184 126.686 22.88 126.702 22.512C126.718 22.16 126.75 21.88 126.798 21.672C127.07 21.72 127.334 21.752 127.59 21.768C127.846 21.8 128.094 21.816 128.334 21.816C128.798 21.816 129.238 21.704 129.654 21.48C130.086 21.256 130.454 20.896 130.758 20.4C130.982 20.064 131.318 19.4 131.766 18.408C132.214 17.432 132.686 16.304 133.182 15.024L134.838 10.848ZM132.03 18.504C131.646 17.656 131.238 16.768 130.806 15.84C130.39 14.896 129.99 13.992 129.606 13.128C129.222 12.264 128.886 11.536 128.598 10.944C128.23 10.144 127.918 9.544 127.662 9.144C127.422 8.744 127.19 8.464 126.966 8.304C126.758 8.144 126.518 8.04 126.246 7.992C126.198 7.848 126.158 7.688 126.126 7.512C126.11 7.336 126.102 7.152 126.102 6.96C126.566 6.976 127.03 6.992 127.494 7.008C127.958 7.008 128.398 7.008 128.814 7.008C129.23 7.008 129.742 7.008 130.35 7.008C130.958 6.992 131.51 6.976 132.006 6.96C132.006 7.168 131.99 7.36 131.958 7.536C131.942 7.696 131.902 7.848 131.838 7.992C130.974 8.136 130.478 8.392 130.35 8.76C130.222 9.112 130.374 9.736 130.806 10.632C131.03 11.096 131.286 11.656 131.574 12.312C131.862 12.952 132.142 13.6 132.414 14.256C132.686 14.896 132.918 15.464 133.11 15.96L132.03 18.504Z" fill="black"/>
</svg>
